<?xml version="1.0" encoding="UTF-8"?> <svg xmlns="http://www.w3.org/2000/svg" width="85" height="85" viewBox="0 0 85 85" fill="none"> <rect width="85" height="85" rx="10" fill="black"></rect> <path d="M23.4511 23.912H11.7871C11.7871 20.904 13.1791 19.4 15.9631 19.4H40.2031C40.2031 20.872 39.8511 21.992 39.1471 22.76C38.4431 23.528 37.4031 23.912 36.0271 23.912H28.5871V49.352C28.5871 50.664 28.1391 51.672 27.2431 52.376C26.3791 53.08 25.1151 53.432 23.4511 53.432V23.912Z" fill="#FFA31A"></path> <path d="M45.4772 32.712C45.4772 31.496 45.8612 30.568 46.6292 29.928C47.3972 29.288 48.5172 28.968 49.9892 28.968V44.088H67.0292V32.712C67.0292 31.496 67.4132 30.568 68.1812 29.928C68.9492 29.288 70.0692 28.968 71.5412 28.968V59.688C71.5412 60.904 71.1572 61.832 70.3892 62.472C69.6212 63.112 68.5012 63.432 67.0292 63.432V48.072H49.9892V59.688C49.9892 60.904 49.6052 61.832 48.8372 62.472C48.0692 63.112 46.9492 63.432 45.4772 63.432V32.712Z" fill="white"></path> </svg> 